<?xml version="1.0" encoding="UTF-8"?>

<svg width="724px" height="144px" viewBox="0 0 724 144" version="1.1" xmlns="http://www.w3.org/2000/svg"
     xmlns:xlink="http://www.w3.org/1999/xlink">
    <g id="Page-1" stroke="none" stroke-width="1" fill="none" fill-rule="evenodd">
        <g id="McParkingLogo-CMYK" transform="translate(-62.000000, -36.000000)">
            <path
                d="M62.646,145.388 L85.093,145.388 L85.093,67.254 L85.381,67.254 L111.138,145.388 L128.261,145.388 L155.026,67.254 L155.313,67.254 L155.313,145.388 L177.761,145.388 L177.761,43.512 L143.946,43.512 L120.347,109.991 L120.06,109.991 L96.605,43.512 L62.646,43.512 L62.646,145.388 Z M257.763,83.083 C254.404,79.629 250.447,77.208 245.892,75.816 C241.335,74.426 236.993,73.729 232.87,73.729 C227.496,73.729 222.437,74.593 217.689,76.32 C212.941,78.046 208.815,80.517 205.314,83.73 C201.811,86.945 199.055,90.806 197.04,95.313 C195.026,99.824 194.019,104.86 194.019,110.422 C194.019,115.987 195.026,121.023 197.04,125.531 C199.055,130.041 201.811,133.902 205.314,137.114 C208.815,140.33 212.941,142.798 217.689,144.525 C222.437,146.252 227.496,147.115 232.87,147.115 C236.993,147.115 241.335,146.418 245.892,145.029 C250.447,143.639 254.404,141.215 257.763,137.762 L243.518,122.797 C242.27,124.236 240.784,125.484 239.057,126.538 C237.33,127.595 235.266,128.121 232.87,128.121 C227.402,128.121 223.157,126.491 220.135,123.229 C217.113,119.969 215.603,115.699 215.603,110.422 C215.603,105.148 217.113,100.878 220.135,97.616 C223.157,94.356 227.402,92.723 232.87,92.723 C235.075,92.723 237.137,93.227 239.057,94.234 C240.975,95.242 242.461,96.514 243.518,98.047 L257.763,83.083 L257.763,83.083 Z"
                id="Fill-4" fill="#F9C623"></path>
            <path
                d="M435.634,145.388 L457.218,145.388 L457.218,116.178 C457.218,112.725 457.409,109.559 457.793,106.681 C458.176,103.803 459.016,101.334 460.311,99.271 C461.607,97.209 463.452,95.601 465.851,94.45 C468.248,93.299 471.51,92.723 475.636,92.723 C477.266,92.723 479.151,92.795 480.313,92.935 C481.53,93.081 481.827,93.155 482.738,93.304 L482.738,74.098 C482.199,73.949 482.124,73.986 481.392,73.873 C480.144,73.779 478.896,73.729 477.651,73.729 C472.853,73.729 468.873,74.809 465.708,76.967 C462.542,79.125 459.808,82.363 457.506,86.68 L457.218,86.68 L457.218,75.456 L435.634,75.456 L435.634,145.388"
                id="Fill-5" fill="#FFFFFE"></path>
            <path
                d="M276.951,145.398 L298.276,145.398 L298.276,105.683 L312.002,105.683 C317.105,105.683 321.844,105.18 326.219,104.172 C330.593,103.165 334.373,101.463 337.565,99.064 C340.753,96.668 343.259,93.452 345.083,89.423 C346.905,85.394 347.817,80.408 347.817,74.458 C347.817,68.415 346.837,63.403 344.878,59.422 C342.917,55.442 340.275,52.276 336.949,49.925 C333.622,47.575 329.726,45.92 325.262,44.96 C320.795,44.003 316.056,43.521 311.045,43.521 L276.951,43.521 L276.951,145.398 Z M298.276,62.515 L307.354,62.515 C309.358,62.515 311.455,62.637 313.642,62.875 C315.829,63.116 317.812,63.666 319.589,64.53 C321.366,65.393 322.822,66.616 323.963,68.199 C325.101,69.782 325.672,71.868 325.672,74.458 C325.672,76.857 325.238,78.847 324.373,80.43 C323.506,82.013 322.367,83.261 320.956,84.171 C319.542,85.084 317.948,85.732 316.171,86.114 C314.394,86.498 312.549,86.689 310.635,86.689 L298.276,86.689 L298.276,62.515 L298.276,62.515 Z"
                id="Fill-6" fill="#FFFFFE"></path>
            <path
                d="M395.078,145.398 L414.935,145.398 L414.935,109.856 C414.935,104.006 414.454,98.848 413.496,94.388 C412.536,89.927 410.834,86.163 408.388,83.092 C405.942,80.023 402.68,77.696 398.603,76.113 C394.525,74.53 389.322,73.739 382.991,73.739 C377.235,73.739 371.671,74.674 366.299,76.545 C360.926,78.416 356.227,81.221 352.198,84.963 L363.709,96.762 C366.012,94.172 368.624,92.135 371.551,90.646 C374.477,89.16 377.714,88.416 381.264,88.416 C385.005,88.416 388.243,89.545 390.977,91.798 C393.711,94.053 395.078,97.099 395.078,100.935 C392.103,100.935 388.866,100.984 385.365,101.079 C381.862,101.175 378.362,101.463 374.861,101.942 C371.358,102.423 367.977,103.165 364.716,104.172 C361.454,105.18 358.552,106.596 356.011,108.417 C353.468,110.241 351.454,112.543 349.967,115.324 C348.479,118.108 347.737,121.512 347.737,125.541 C347.737,129.091 348.407,132.209 349.752,134.894 C351.094,137.58 352.917,139.835 355.22,141.657 C357.522,143.48 360.184,144.847 363.206,145.758 C366.227,146.668 369.368,147.125 372.631,147.125 C377.042,147.125 381.24,146.308 385.221,144.678 C389.201,143.048 392.391,140.362 394.79,136.62 L395.078,136.62 L395.078,145.398 Z M395.078,114.749 L395.078,119.353 C395.078,121.561 394.622,123.479 393.711,125.109 C392.798,126.741 391.575,128.083 390.042,129.138 C388.506,130.195 386.755,131.009 384.79,131.584 C382.822,132.16 380.783,132.447 378.674,132.447 C376.275,132.447 373.973,131.825 371.767,130.577 C369.559,129.331 368.458,127.411 368.458,124.821 C368.458,122.424 369.249,120.554 370.832,119.209 C372.415,117.867 374.333,116.86 376.588,116.188 C378.841,115.518 381.192,115.108 383.638,114.964 C386.085,114.821 388.122,114.749 389.754,114.749 L395.078,114.749 L395.078,114.749 Z"
                id="Fill-7" fill="#FFFFFE"></path>
            <path
                d="M495.211,145.398 L516.795,145.398 L516.795,110 L517.083,110 L540.682,145.398 L567.877,145.398 L539.386,106.978 L567.158,75.466 L540.682,75.466 L516.795,103.093 L516.795,36.615 L495.211,36.615 L495.211,145.398 Z M581.49,145.398 L603.074,145.398 L603.074,75.466 L581.49,75.466 L581.49,145.398 Z M625.175,145.398 L646.759,145.398 L646.759,110.576 C646.759,108.273 646.903,106.068 647.191,103.957 C647.478,101.848 648.076,99.952 648.989,98.273 C649.9,96.596 651.22,95.251 652.946,94.244 C654.673,93.237 656.926,92.733 659.709,92.733 C662.49,92.733 664.624,93.309 666.113,94.46 C667.599,95.611 668.703,97.099 669.422,98.92 C670.142,100.744 670.573,102.733 670.717,104.892 C670.861,107.05 670.933,109.137 670.933,111.151 L670.933,145.398 L692.517,145.398 L692.517,106.834 C692.517,102.135 692.18,97.769 691.51,93.74 C690.837,89.711 689.567,86.211 687.697,83.236 C685.826,80.264 683.211,77.937 679.854,76.257 C676.495,74.58 672.084,73.739 666.616,73.739 C664.026,73.739 661.627,74.076 659.422,74.746 C657.214,75.419 655.249,76.282 653.522,77.336 C651.795,78.393 650.307,79.591 649.061,80.934 C647.813,82.278 646.853,83.62 646.183,84.963 L645.896,84.963 L645.896,75.466 L625.175,75.466 L625.175,145.398 L625.175,145.398 Z"
                id="Fill-8" fill="#FFFFFE"></path>
            <path
                d="M583.297,58.076 C585.743,60.522 588.693,61.746 592.146,61.746 C595.6,61.746 598.549,60.522 600.996,58.076 C603.442,55.63 604.665,52.68 604.665,49.227 C604.665,45.773 603.442,42.824 600.996,40.377 C598.549,37.931 595.6,36.708 592.146,36.708 C588.693,36.708 585.743,37.931 583.297,40.377 C580.851,42.824 579.628,45.773 579.628,49.227 C579.628,52.68 580.851,55.63 583.297,58.076"
                id="Fill-9" fill="#FFFFFE"></path>
            <path
                d="M785.73,75.466 L765.872,75.466 L765.872,84.675 L765.585,84.675 C764.721,83.429 763.57,82.157 762.131,80.862 C760.692,79.567 758.965,78.393 756.951,77.336 C754.936,76.282 752.657,75.419 750.116,74.746 C747.573,74.076 744.767,73.739 741.698,73.739 C736.709,73.739 732.248,74.771 728.316,76.833 C724.382,78.897 721.05,81.606 718.316,84.963 C715.582,88.322 713.47,92.207 711.984,96.618 C710.496,101.032 709.754,105.539 709.754,110.144 C709.754,115.421 710.568,120.266 712.2,124.677 C713.83,129.091 716.157,132.904 719.179,136.117 C722.201,139.332 725.82,141.825 730.043,143.599 C734.263,145.375 738.964,146.261 744.144,146.261 C747.404,146.261 750.883,145.564 754.577,144.175 C758.268,142.785 761.362,140.411 763.858,137.052 L764.146,137.052 L764.146,143.815 C764.146,148.802 762.585,152.903 759.469,156.118 C756.351,159.331 751.483,160.938 744.864,160.938 C740.45,160.938 735.681,159.881 732.75,158.872 C729.766,157.844 724.776,155.616 721.419,152.835 L710.46,169.18 C715.544,173.21 721.619,175.92 726.063,177.26 C731.914,179.025 739.994,180.012 745.296,179.932 C758.914,179.729 769.06,176.501 775.729,169.644 C782.395,162.784 785.73,152.736 785.73,139.498 L785.73,75.466 Z M732.633,103.453 C733.496,101.391 734.719,99.568 736.302,97.985 C737.885,96.402 739.706,95.132 741.77,94.172 C743.832,93.214 746.109,92.733 748.605,92.733 C751.002,92.733 753.257,93.214 755.368,94.172 C757.477,95.132 759.325,96.402 760.908,97.985 C762.491,99.568 763.714,101.391 764.577,103.453 C765.441,105.517 765.872,107.698 765.872,110 C765.872,112.302 765.441,114.486 764.577,116.547 C763.714,118.611 762.491,120.432 760.908,122.015 C759.325,123.598 757.477,124.871 755.368,125.828 C753.257,126.788 751.002,127.267 748.605,127.267 C746.109,127.267 743.832,126.788 741.77,125.828 C739.706,124.871 737.885,123.598 736.302,122.015 C734.719,120.432 733.496,118.611 732.633,116.547 C731.77,114.486 731.338,112.302 731.338,110 C731.338,107.698 731.77,105.517 732.633,103.453 L732.633,103.453 Z"
                id="Fill-10" fill="#FFFFFE"></path>
        </g>
    </g>
</svg>
